<mxfile host="app.diagrams.net" agent="Mozilla/5.0 (Windows NT 10.0; Win64; x64) AppleWebKit/537.36 (KHTML, like Gecko) Chrome/138.0.0.0 Safari/537.36" version="28.0.3">
  <diagram name="Page-1" id="7emoJSjGoLU86nidxxyy">
    <mxGraphModel dx="1042" dy="670" grid="1" gridSize="10" guides="1" tooltips="1" connect="1" arrows="1" fold="1" page="1" pageScale="1" pageWidth="850" pageHeight="1100" math="0" shadow="0">
      <root>
        <mxCell id="0" />
        <mxCell id="1" parent="0" />
        <mxCell id="DzHTTifW93qdiQLQO-er-8" value="" style="rounded=0;whiteSpace=wrap;html=1;fillColor=#f5f5f5;fontColor=#333333;strokeColor=#666666;" vertex="1" parent="1">
          <mxGeometry x="80" y="80" width="210" height="390" as="geometry" />
        </mxCell>
        <mxCell id="DzHTTifW93qdiQLQO-er-9" value="Content Editor element" style="rounded=0;whiteSpace=wrap;html=1;fillColor=#f8cecc;strokeColor=#b85450;" vertex="1" parent="1">
          <mxGeometry x="110" y="200" width="160" height="230" as="geometry" />
        </mxCell>
        <mxCell id="DzHTTifW93qdiQLQO-er-10" value="&lt;span&gt;Tool bar&lt;/span&gt;" style="rounded=0;whiteSpace=wrap;html=1;fillColor=#e1d5e7;strokeColor=#9673a6;" vertex="1" parent="1">
          <mxGeometry x="110" y="120" width="160" height="60" as="geometry" />
        </mxCell>
        <mxCell id="DzHTTifW93qdiQLQO-er-11" value="UI View" style="text;html=1;align=center;verticalAlign=middle;whiteSpace=wrap;rounded=0;" vertex="1" parent="1">
          <mxGeometry x="155" y="80" width="60" height="30" as="geometry" />
        </mxCell>
        <mxCell id="DzHTTifW93qdiQLQO-er-16" value="--FORMAT_TEXT&lt;div&gt;TOGGLE_LINK&lt;/div&gt;&lt;div&gt;LIST_DOT&lt;/div&gt;" style="text;html=1;align=center;verticalAlign=middle;whiteSpace=wrap;rounded=0;" vertex="1" parent="1">
          <mxGeometry x="300" y="120" width="60" height="30" as="geometry" />
        </mxCell>
        <mxCell id="DzHTTifW93qdiQLQO-er-19" value="INSERT, DELETE, KEY PRESS, CLICK" style="text;html=1;align=center;verticalAlign=middle;whiteSpace=wrap;rounded=0;" vertex="1" parent="1">
          <mxGeometry x="310" y="260" width="110" height="30" as="geometry" />
        </mxCell>
        <mxCell id="DzHTTifW93qdiQLQO-er-20" value="" style="rounded=0;whiteSpace=wrap;html=1;" vertex="1" parent="1">
          <mxGeometry x="485" y="85" width="200" height="380" as="geometry" />
        </mxCell>
        <mxCell id="DzHTTifW93qdiQLQO-er-39" style="edgeStyle=orthogonalEdgeStyle;rounded=0;orthogonalLoop=1;jettySize=auto;html=1;exitX=0.5;exitY=1;exitDx=0;exitDy=0;entryX=0.5;entryY=0;entryDx=0;entryDy=0;" edge="1" parent="1" source="DzHTTifW93qdiQLQO-er-21" target="DzHTTifW93qdiQLQO-er-26">
          <mxGeometry relative="1" as="geometry" />
        </mxCell>
        <mxCell id="DzHTTifW93qdiQLQO-er-21" value="Event" style="rounded=0;whiteSpace=wrap;html=1;" vertex="1" parent="1">
          <mxGeometry x="520" y="110" width="150" height="30" as="geometry" />
        </mxCell>
        <mxCell id="DzHTTifW93qdiQLQO-er-40" style="edgeStyle=orthogonalEdgeStyle;rounded=0;orthogonalLoop=1;jettySize=auto;html=1;exitX=0.5;exitY=1;exitDx=0;exitDy=0;entryX=0.5;entryY=0;entryDx=0;entryDy=0;" edge="1" parent="1" source="DzHTTifW93qdiQLQO-er-26" target="DzHTTifW93qdiQLQO-er-33">
          <mxGeometry relative="1" as="geometry" />
        </mxCell>
        <mxCell id="DzHTTifW93qdiQLQO-er-26" value="Operations command" style="rounded=0;whiteSpace=wrap;html=1;" vertex="1" parent="1">
          <mxGeometry x="520" y="160" width="150" height="40" as="geometry" />
        </mxCell>
        <mxCell id="DzHTTifW93qdiQLQO-er-44" style="edgeStyle=orthogonalEdgeStyle;rounded=0;orthogonalLoop=1;jettySize=auto;html=1;exitX=0.5;exitY=1;exitDx=0;exitDy=0;entryX=0.5;entryY=0;entryDx=0;entryDy=0;" edge="1" parent="1" source="DzHTTifW93qdiQLQO-er-33" target="DzHTTifW93qdiQLQO-er-42">
          <mxGeometry relative="1" as="geometry" />
        </mxCell>
        <mxCell id="DzHTTifW93qdiQLQO-er-33" value="Dispatcher" style="rounded=0;whiteSpace=wrap;html=1;" vertex="1" parent="1">
          <mxGeometry x="520" y="220" width="150" height="40" as="geometry" />
        </mxCell>
        <mxCell id="DzHTTifW93qdiQLQO-er-34" value="" style="endArrow=classic;html=1;rounded=0;entryX=0;entryY=0.75;entryDx=0;entryDy=0;exitX=1;exitY=0.377;exitDx=0;exitDy=0;exitPerimeter=0;" edge="1" parent="1" source="DzHTTifW93qdiQLQO-er-9" target="DzHTTifW93qdiQLQO-er-21">
          <mxGeometry width="50" height="50" relative="1" as="geometry">
            <mxPoint x="280" y="280" as="sourcePoint" />
            <mxPoint x="330" y="230" as="targetPoint" />
          </mxGeometry>
        </mxCell>
        <mxCell id="DzHTTifW93qdiQLQO-er-41" value="" style="endArrow=classic;html=1;rounded=0;" edge="1" parent="1" target="DzHTTifW93qdiQLQO-er-33">
          <mxGeometry width="50" height="50" relative="1" as="geometry">
            <mxPoint x="270" y="160" as="sourcePoint" />
            <mxPoint x="320" y="110" as="targetPoint" />
          </mxGeometry>
        </mxCell>
        <mxCell id="DzHTTifW93qdiQLQO-er-49" style="edgeStyle=orthogonalEdgeStyle;rounded=0;orthogonalLoop=1;jettySize=auto;html=1;exitX=0.5;exitY=1;exitDx=0;exitDy=0;" edge="1" parent="1" source="DzHTTifW93qdiQLQO-er-42" target="DzHTTifW93qdiQLQO-er-48">
          <mxGeometry relative="1" as="geometry" />
        </mxCell>
        <mxCell id="DzHTTifW93qdiQLQO-er-42" value="" style="rounded=0;whiteSpace=wrap;html=1;fillColor=#dae8fc;strokeColor=#6c8ebf;" vertex="1" parent="1">
          <mxGeometry x="490" y="280" width="190" height="80" as="geometry" />
        </mxCell>
        <mxCell id="DzHTTifW93qdiQLQO-er-45" value="Editor States" style="text;html=1;align=center;verticalAlign=middle;whiteSpace=wrap;rounded=0;" vertex="1" parent="1">
          <mxGeometry x="540" y="280" width="90" height="30" as="geometry" />
        </mxCell>
        <mxCell id="DzHTTifW93qdiQLQO-er-46" value="Active Editor States" style="rounded=0;whiteSpace=wrap;html=1;fillColor=#d5e8d4;strokeColor=#82b366;" vertex="1" parent="1">
          <mxGeometry x="500" y="310" width="80" height="40" as="geometry" />
        </mxCell>
        <mxCell id="DzHTTifW93qdiQLQO-er-47" value="Pending Editor States" style="rounded=0;whiteSpace=wrap;html=1;fillColor=#fff2cc;strokeColor=#d6b656;" vertex="1" parent="1">
          <mxGeometry x="590" y="310" width="80" height="40" as="geometry" />
        </mxCell>
        <mxCell id="DzHTTifW93qdiQLQO-er-48" value="Reconciliation" style="rounded=0;whiteSpace=wrap;html=1;" vertex="1" parent="1">
          <mxGeometry x="510" y="390" width="160" height="60" as="geometry" />
        </mxCell>
        <mxCell id="DzHTTifW93qdiQLQO-er-50" value="" style="endArrow=classic;html=1;rounded=0;exitX=0;exitY=0.5;exitDx=0;exitDy=0;" edge="1" parent="1" source="DzHTTifW93qdiQLQO-er-48" target="DzHTTifW93qdiQLQO-er-9">
          <mxGeometry width="50" height="50" relative="1" as="geometry">
            <mxPoint x="460" y="270" as="sourcePoint" />
            <mxPoint x="510" y="220" as="targetPoint" />
          </mxGeometry>
        </mxCell>
        <mxCell id="DzHTTifW93qdiQLQO-er-52" value="DOM updates" style="text;html=1;align=center;verticalAlign=middle;whiteSpace=wrap;rounded=0;" vertex="1" parent="1">
          <mxGeometry x="330" y="390" width="60" height="30" as="geometry" />
        </mxCell>
      </root>
    </mxGraphModel>
  </diagram>
</mxfile>
